HIERARCHY
ROOT hip
{
	OFFSET 0.000000 0.000000 0.000000 
	CHANNELS 6 Xposition Yposition Zposition Xrotation Zrotation Yrotation
	JOINT abdomen
	{
		OFFSET 0.000000 3.402643 0.000000 
		CHANNELS 3 Xrotation Zrotation Yrotation
		JOINT chest
		{
			OFFSET 0.000000 8.438565 -0.680529 
			CHANNELS 3 Xrotation Zrotation Yrotation
			JOINT neck
			{
				OFFSET 0.000000 10.207942 -0.272212 
				CHANNELS 3 Xrotation Zrotation Yrotation
				JOINT head
				{
					OFFSET 0.000000 3.130431 0.000000 
					CHANNELS 3 Xrotation Zrotation Yrotation
					End Site
					{
						OFFSET 0.000000 3.130435 0.000000 
					}
				}
			}
			JOINT lCollar
			{
				OFFSET 3.470700 6.669187 -0.816635 
				CHANNELS 3 Yrotation Zrotation Xrotation
				JOINT lShldr
				{
					OFFSET 3.198488 0.000000 0.000000 
					CHANNELS 3 Zrotation Yrotation Xrotation
					JOINT lForeArm
					{
						OFFSET 10.139888 0.000000 0.000000 
						CHANNELS 3 Yrotation Zrotation Xrotation
						JOINT lHand
						{
							OFFSET 8.370511 0.000000 0.000000 
							CHANNELS 3 Zrotation Yrotation Xrotation
							End Site
							{
								OFFSET 4.083176 0.000000 0.000000 
							}
						}
					}
				}
			}
			JOINT rCollar
			{
				OFFSET -3.470700 6.669187 -0.816635 
				CHANNELS 3 Yrotation Zrotation Xrotation
				JOINT rShldr
				{
					OFFSET -3.198488 0.000000 0.000000 
					CHANNELS 3 Zrotation Yrotation Xrotation
					JOINT rForeArm
					{
						OFFSET -10.139888 0.000000 0.000000 
						CHANNELS 3 Yrotation Zrotation Xrotation
						JOINT rHand
						{
							OFFSET -8.370511 0.000000 0.000000 
							CHANNELS 3 Zrotation Yrotation Xrotation
							End Site
							{
								OFFSET -4.083176 0.000000 0.000000 
							}
						}
					}
				}
			}
		}
	}
	JOINT lThigh
	{
		OFFSET 5.308129 -1.633274 1.361059 
		CHANNELS 3 Xrotation Zrotation Yrotation
		JOINT lShin
		{
			OFFSET -2.041588 -20.007561 0.000000 
			CHANNELS 3 Xrotation Zrotation Yrotation
			JOINT lFoot
			{
				OFFSET 0.000000 -19.190928 -1.224953 
				CHANNELS 3 Xrotation Yrotation Zrotation
				End Site
				{
					OFFSET 0.000000 -2.449906 4.627600 
				}
			}
		}
	}
	JOINT rThigh
	{
		OFFSET -5.308129 -1.633274 1.361059 
		CHANNELS 3 Xrotation Zrotation Yrotation
		JOINT rShin
		{
			OFFSET 2.041588 -20.007561 0.000000 
			CHANNELS 3 Xrotation Zrotation Yrotation
			JOINT rFoot
			{
				OFFSET 0.000000 -19.190928 -1.224953 
				CHANNELS 3 Xrotation Yrotation Zrotation
				End Site
				{
					OFFSET 0.000000 -2.449906 4.627600 
				}
			}
		}
	}
}
MOTION
Frames: 16
Frame Time: 0.033333
0.627640 26.397516 -7.048126 17.949221 0.000000 -0.019531 6.825594 11.029541 -24.704578 12.243345 3.600880 -16.233932 -8.544920 -0.009766 -0.009767 0.620069 13.921208 -32.887161 1.992188 -2.001953 0.000341 93.053864 -19.384619 -153.340698 -28.082626 -0.729154 8.401393 -30.991737 48.197495 -26.343725 -2.001953 1.992188 0.000000 75.794777 -8.795640 -32.189781 29.861156 0.678532 8.388700 16.197897 -16.472458 -16.707876 -86.811859 21.102896 -7.011094 106.150330 3.581035 -3.932245 -40.995579 -11.487508 -14.825899 -103.504852 -16.015842 8.274128 99.043655 -3.194361 4.057707 -20.535597 9.449450 12.451159 
0.417282 26.129551 -7.258484 17.949221 0.000000 -0.019531 8.621729 10.475017 -22.275127 13.007248 3.730788 -15.805816 -8.544920 -0.009766 -0.009767 -3.044824 15.256326 -32.803936 1.992188 -2.001953 0.000341 82.058083 -33.669674 -150.803833 -36.634815 -0.664736 8.463540 -26.633341 38.447289 -21.408085 -2.001953 1.992188 0.000000 77.339325 -8.841726 -31.435177 29.861156 0.678532 8.388700 16.197897 -16.472458 -16.707876 -89.601479 21.356279 -7.741272 106.930923 3.639367 -3.917097 -39.275581 -12.151859 -15.032202 -105.265198 -15.898391 7.826636 99.025299 -3.153767 4.064927 -18.608795 9.787743 11.645255 
0.214430 25.849070 -7.461336 17.949221 0.000000 -0.019531 12.630613 8.648271 -17.123520 14.770586 3.965179 -14.840694 -8.544920 -0.009766 -0.009767 -8.250730 14.692994 -33.525501 1.992188 -2.001953 0.000341 66.570770 -52.867435 -141.332886 -45.253242 -0.614138 8.533744 -23.387032 27.188128 -18.340828 -2.001953 1.992188 0.000000 75.940269 -5.689171 -28.232859 29.861156 0.678532 8.388700 16.197897 -16.472458 -16.707876 -92.096458 20.859076 -8.699681 107.224854 3.649300 -3.889769 -37.251228 -11.995812 -15.262111 -106.589264 -15.400777 7.400310 98.487755 -3.135808 4.082342 -16.552908 9.637893 10.946877 
0.011590 25.568609 -7.664177 17.949221 0.000000 -0.019531 16.443773 6.474553 -12.129133 16.529778 4.172115 -13.865354 -8.544920 -0.009766 -0.009767 -13.436059 14.060160 -34.193558 1.992188 -2.001953 0.000341 31.984068 -67.717789 -112.152542 -53.859467 -0.564317 8.614400 -20.995304 15.827587 -16.150560 -2.001953 1.992188 0.000000 74.727425 -2.471215 -25.122309 29.861156 0.678532 8.388700 16.197897 -16.472458 -16.707876 -94.556343 20.321957 -9.627605 107.527290 3.668602 -3.888113 -35.224537 -11.848773 -15.469468 -107.917770 -14.893024 6.942023 97.931702 -3.106452 4.083041 -14.492038 9.467933 10.240891 
-0.158710 25.348196 -7.834475 17.949221 0.000000 -0.019531 20.935093 2.638677 -6.598714 18.774387 4.336015 -12.643837 -8.544920 -0.009766 -0.009767 -19.311899 12.868228 -35.176819 1.992188 -2.001953 0.000341 -0.158439 -70.850502 -77.750191 -55.214588 -0.557366 8.621234 -19.483921 13.950008 -13.892143 -2.001953 1.992188 0.000000 72.620491 2.153129 -21.374126 29.861156 0.678532 8.388700 16.197897 -16.472458 -16.707876 -96.377426 19.843090 -10.514048 107.106209 3.649054 -3.926147 -33.126221 -11.610942 -15.848605 -108.589401 -14.277714 6.327140 96.868073 -3.028167 4.114900 -12.488475 9.090114 9.443978 
-0.328999 25.127798 -8.004766 17.949221 0.000000 -0.019531 25.038296 -1.581568 -1.387269 21.026667 4.441728 -11.430620 -8.544920 -0.009766 -0.009767 -25.138996 11.588521 -36.030098 1.992188 -2.001953 0.000341 -31.102295 -66.979286 -44.554401 -56.563232 -0.557045 8.634432 -18.064987 12.024590 -11.701033 -2.001953 1.992188 0.000000 70.813332 6.897436 -17.784817 29.861156 0.678532 8.388700 16.197897 -16.472458 -16.707876 -98.188904 19.306250 -11.349698 106.667229 3.619821 -3.928719 -31.039333 -11.417838 -16.210827 -109.259468 -13.662519 5.696345 95.805557 -2.920749 4.146589 -10.491166 8.679907 8.636420 
-0.441693 25.057669 -8.117460 17.949221 0.000000 -0.019531 28.652004 -6.866032 2.940992 23.324375 4.421114 -10.225627 -8.544920 -0.009766 -0.009767 -30.362841 10.109685 -36.584999 1.992188 -2.001953 0.000341 -38.919342 -58.739155 -31.200533 -55.499165 -0.558759 8.629458 -17.029613 12.955554 -9.994043 -2.001953 1.992188 0.000000 68.254066 12.520331 -14.320900 29.861156 0.678532 8.388700 16.197897 -16.472458 -16.707876 -98.937927 19.081305 -12.055529 105.368271 3.561082 -3.953892 -29.143198 -11.267004 -16.770029 -109.081215 -12.979011 4.802928 94.254753 -2.832779 4.150520 -8.845423 8.123741 7.756322 
-0.554382 24.987608 -8.230148 17.949221 0.000000 -0.019531 31.921698 -12.400538 6.979574 25.618731 4.350038 -9.019866 -8.544920 -0.009766 -0.009767 -35.557308 8.584398 -36.995667 1.992188 -2.001953 0.000341 -42.169079 -49.981026 -22.195015 -54.444324 -0.564471 8.613217 -15.960697 13.857698 -8.253261 -2.001953 1.992188 0.000000 65.972923 18.282305 -11.030824 29.861156 0.678532 8.388700 16.197897 -16.472458 -16.707876 -99.689346 18.837461 -12.792009 104.089821 3.483330 -3.971572 -27.258730 -11.145004 -17.327927 -108.898399 -12.295234 3.937211 92.686066 -2.705054 4.151203 -7.207898 7.537085 6.880325 
-0.614486 25.846596 -8.290252 17.949221 0.000000 -0.019531 31.700415 -12.339547 7.086562 25.235928 4.282060 -9.058088 -8.544920 -0.009766 -0.009767 -34.729408 7.464950 -32.970325 1.992188 -2.001953 0.000341 -44.181454 -40.583755 -18.856190 -52.737305 -0.572708 8.601338 -18.442860 14.926632 -12.174168 -2.001953 1.992188 0.000000 63.799370 21.435722 -8.338046 30.594179 0.676860 8.392139 16.197897 -16.472458 -16.707876 -97.136345 19.521202 -12.374623 102.684303 3.376590 -4.017883 -28.445786 -11.154522 -17.581459 -107.057800 -12.333933 3.505960 92.353386 -2.714984 4.151763 -8.614876 7.398030 6.729297 
-0.674585 26.705664 -8.350353 17.949221 0.000000 -0.029297 31.492506 -12.269112 7.186110 24.852388 4.223853 -9.087307 -8.544920 -0.009766 -0.009767 -34.002750 6.295265 -28.979298 1.992188 -2.001953 0.000341 -45.334293 -31.121511 -16.278206 -51.024406 -0.579879 8.588209 -20.997889 15.824088 -16.161997 -2.001953 1.992188 0.000000 61.739979 24.685114 -5.712083 31.327557 0.665220 8.395228 16.197897 -16.472458 -16.707876 -94.575172 20.185049 -11.924436 101.289299 3.279280 -4.037648 -29.611923 -11.175150 -17.821522 -105.200012 -12.392469 3.127555 92.012817 -2.655683 4.171912 -10.045568 7.302245 6.520571 
-0.702133 28.441141 -8.377899 16.372971 0.331747 -2.373064 31.162987 -9.861102 5.281830 22.627295 3.652225 -8.366122 -8.544920 -0.009766 -0.009767 -30.598503 7.583272 -22.048141 1.992188 -2.001953 0.000341 -45.811390 -29.079657 -14.353757 -48.903641 -0.583431 8.567201 -28.121693 14.675146 -27.466589 -2.001953 1.992188 0.000000 62.090797 30.704405 -1.549958 33.468010 0.656152 8.413476 15.310007 -19.767176 -18.580969 -88.553619 21.621265 -9.828167 94.168587 2.763737 -4.172003 -26.648853 -12.132607 -17.157410 -96.621765 -13.866523 2.718891 87.704399 -2.373163 4.160422 -12.517327 8.163187 7.388642 
-0.729678 30.176655 -8.405443 14.774221 0.603401 -4.736579 30.761608 -7.467617 3.378281 20.393316 3.116756 -7.628153 -8.544920 -0.009766 -0.009767 -27.057304 8.454663 -15.039332 1.992188 -2.001953 0.000341 -46.205051 -27.024059 -12.488995 -46.785854 -0.603953 8.549390 -34.826427 12.215084 -38.470062 -2.001953 1.992188 0.000000 63.005413 36.676125 2.950196 35.608402 0.645159 8.428932 14.511053 -23.076712 -20.421370 -82.421173 22.832146 -7.532262 87.052315 2.255220 -4.208915 -23.660837 -13.088117 -16.453531 -87.990677 -15.272581 2.093155 83.387314 -2.060577 4.152743 -15.017743 8.970145 8.264873 
-0.742200 32.260235 -8.417967 12.998111 0.832954 -7.344389 30.263580 -5.096899 0.990236 17.945911 2.569743 -6.793826 -8.544920 -0.009766 -0.009767 -22.583759 10.124450 -7.707649 1.992188 -2.001953 0.000341 -44.939030 -30.027765 -11.504698 -43.984776 -0.613620 8.526481 -42.806561 7.063510 -52.573696 -2.001953 1.992188 0.000000 67.085022 42.585175 9.660505 37.895462 0.627422 8.447399 13.760016 -26.766376 -22.474556 -75.806755 23.827335 -4.884776 79.333649 1.710823 -4.191031 -20.205912 -14.146763 -15.657283 -77.963318 -16.864674 1.172545 78.243050 -1.679459 4.117066 -17.735144 9.721996 9.414607 
-0.754720 34.343777 -8.430486 11.214401 0.981077 -9.962306 29.667473 -2.743302 -1.417664 15.489573 2.059274 -5.921503 -8.544920 -0.009766 -0.009767 -17.913715 11.220624 -0.218338 1.992188 -2.001953 0.000341 -43.695614 -33.054314 -10.558702 -41.177544 -0.638809 8.503201 -49.258919 0.191088 -65.759933 -2.001953 1.992188 0.000000 72.605515 48.043945 17.691158 40.172665 0.606912 8.472768 13.115074 -30.459030 -24.523752 -69.107704 24.530144 -2.119306 71.606216 1.155544 -4.127892 -16.746149 -15.150585 -14.795014 -67.807716 -18.270615 -0.078798 73.098534 -1.318034 4.054555 -20.462721 10.430684 10.601887 
-0.754720 36.146877 -8.430486 9.325882 1.038267 -12.736496 28.951307 -0.603790 -4.267855 12.918140 1.585762 -4.992102 -8.544920 -0.009766 -0.009767 -12.381639 12.978159 7.489162 1.992188 -2.001953 0.000341 -41.028191 -37.910099 -10.832283 -38.635525 -0.654381 8.480511 -54.425228 -8.862226 -79.523125 -2.001953 1.992188 0.000000 82.754852 52.289291 28.883575 42.557129 0.587309 8.491958 12.611081 -34.389484 -26.744635 -62.125671 24.930317 0.860646 63.538082 0.619178 -3.946700 -13.027229 -16.283798 -13.945181 -56.697895 -19.413935 -1.808821 66.862480 -0.898411 3.937610 -22.864544 10.822238 11.795051 
-0.754720 37.949875 -8.430486 7.428281 0.997466 -15.510164 28.144611 1.482588 -7.131055 10.339058 1.149503 -4.024194 -8.544920 -0.009766 -0.009767 -6.639157 13.985220 15.370636 1.992188 -2.001953 0.000341 -38.150852 -42.739441 -11.419688 -36.096218 -0.676416 8.457714 -57.400146 -18.896042 -92.975769 -2.001953 1.992188 0.000000 95.004417 55.072090 42.145218 44.931107 0.583997 8.518029 12.256228 -38.340698 -29.014248 -55.123417 24.998062 3.871619 55.469379 0.092940 -3.667632 -9.266429 -17.348305 -13.026801 -45.473835 -20.183208 -3.749673 60.625504 -0.487973 3.787989 -25.287529 11.155408 12.994864 
